name rise30.2954peak35.7071fall66.7804.mot
datacolumns 19
datarows 21
range 5.23998300000000 5.27331900000000
endheader
time	ground_force1_vx	ground_force1_vy	ground_force1_vz	ground_force1_px	ground_force1_py	ground_force1_pz	ground_force2_vx	ground_force2_vy	ground_force2_vz	ground_force2_px	ground_force2_py	ground_force2_pz	ground_torque1_x	ground_torque1_y	ground_torque1_z	ground_torque2_x	ground_torque2_y	ground_torque2_z	
5.23998300000000	10.99688700000000	716.88362299999994	50.32012100000000	0.20882600000000	0.00000000000000	0.13245000000000	0.00000000000000	0.00000000000000	0.00000000000000	0.00000000000000	0.00000000000000	0.00000000000000	0.00000000000000	18.34924700000000	0.00000000000000	0.00000000000000	0.00000000000000	0.00000000000000	
5.24164700000000	10.53055500000000	717.17965000000004	50.25815200000000	0.20773700000000	0.00000000000000	0.13241200000000	0.00000000000000	0.00000000000000	0.00000000000000	0.00000000000000	0.00000000000000	0.00000000000000	0.00000000000000	18.38373800000000	0.00000000000000	0.00000000000000	0.00000000000000	0.00000000000000	
5.24331900000000	10.05124200000000	717.45503299999996	50.20047800000000	0.20663000000000	0.00000000000000	0.13237500000000	0.00000000000000	0.00000000000000	0.00000000000000	0.00000000000000	0.00000000000000	0.00000000000000	0.00000000000000	18.42313700000000	0.00000000000000	0.00000000000000	0.00000000000000	0.00000000000000	
5.24498100000000	9.55900400000000	717.71079999999995	50.14719300000000	0.20550500000000	0.00000000000000	0.13233800000000	0.00000000000000	0.00000000000000	0.00000000000000	0.00000000000000	0.00000000000000	0.00000000000000	0.00000000000000	18.46741500000000	0.00000000000000	0.00000000000000	0.00000000000000	0.00000000000000	
5.24665100000000	9.05392900000000	717.94814899999994	50.09839000000000	0.20436400000000	0.00000000000000	0.13230200000000	0.00000000000000	0.00000000000000	0.00000000000000	0.00000000000000	0.00000000000000	0.00000000000000	0.00000000000000	18.51653500000000	0.00000000000000	0.00000000000000	0.00000000000000	0.00000000000000	
5.24832300000000	8.53613600000000	718.16844600000002	50.05416200000000	0.20320700000000	0.00000000000000	0.13226800000000	0.00000000000000	0.00000000000000	0.00000000000000	0.00000000000000	0.00000000000000	0.00000000000000	0.00000000000000	18.57045800000000	0.00000000000000	0.00000000000000	0.00000000000000	0.00000000000000	
5.24998900000000	8.00577600000000	718.37321999999995	50.01459500000000	0.20203500000000	0.00000000000000	0.13223300000000	0.00000000000000	0.00000000000000	0.00000000000000	0.00000000000000	0.00000000000000	0.00000000000000	0.00000000000000	18.62913400000000	0.00000000000000	0.00000000000000	0.00000000000000	0.00000000000000	
5.25165000000000	7.46302500000000	718.56414900000004	49.97977600000000	0.20084800000000	0.00000000000000	0.13220000000000	0.00000000000000	0.00000000000000	0.00000000000000	0.00000000000000	0.00000000000000	0.00000000000000	0.00000000000000	18.69251300000000	0.00000000000000	0.00000000000000	0.00000000000000	0.00000000000000	
5.25333200000000	6.90808500000000	718.74306200000001	49.94978600000000	0.19964900000000	0.00000000000000	0.13216800000000	0.00000000000000	0.00000000000000	0.00000000000000	0.00000000000000	0.00000000000000	0.00000000000000	0.00000000000000	18.76053600000000	0.00000000000000	0.00000000000000	0.00000000000000	0.00000000000000	
5.25498700000000	6.34118400000000	718.91192500000000	49.92470500000000	0.19843700000000	0.00000000000000	0.13213600000000	0.00000000000000	0.00000000000000	0.00000000000000	0.00000000000000	0.00000000000000	0.00000000000000	0.00000000000000	18.83314300000000	0.00000000000000	0.00000000000000	0.00000000000000	0.00000000000000	
5.25665500000000	5.76256600000000	719.07283399999994	49.90460900000000	0.19721500000000	0.00000000000000	0.13210500000000	0.00000000000000	0.00000000000000	0.00000000000000	0.00000000000000	0.00000000000000	0.00000000000000	0.00000000000000	18.91026600000000	0.00000000000000	0.00000000000000	0.00000000000000	0.00000000000000	
5.25831500000000	5.17250000000000	719.22800700000005	49.88957000000000	0.19598300000000	0.00000000000000	0.13207400000000	0.00000000000000	0.00000000000000	0.00000000000000	0.00000000000000	0.00000000000000	0.00000000000000	0.00000000000000	18.99183500000000	0.00000000000000	0.00000000000000	0.00000000000000	0.00000000000000	
5.25998300000000	4.57126600000000	719.37977599999999	49.87965800000000	0.19474200000000	0.00000000000000	0.13204400000000	0.00000000000000	0.00000000000000	0.00000000000000	0.00000000000000	0.00000000000000	0.00000000000000	0.00000000000000	19.07777500000000	0.00000000000000	0.00000000000000	0.00000000000000	0.00000000000000	
5.26164900000000	3.95916300000000	719.53057300000000	49.87493800000000	0.19349500000000	0.00000000000000	0.13201500000000	0.00000000000000	0.00000000000000	0.00000000000000	0.00000000000000	0.00000000000000	0.00000000000000	0.00000000000000	19.16801000000000	0.00000000000000	0.00000000000000	0.00000000000000	0.00000000000000	
5.26332100000000	3.33649900000000	719.68292299999996	49.87547300000000	0.19224200000000	0.00000000000000	0.13198600000000	0.00000000000000	0.00000000000000	0.00000000000000	0.00000000000000	0.00000000000000	0.00000000000000	0.00000000000000	19.26245600000000	0.00000000000000	0.00000000000000	0.00000000000000	0.00000000000000	
5.26498400000000	2.70359200000000	719.83943499999998	49.88132400000000	0.19098400000000	0.00000000000000	0.13195700000000	0.00000000000000	0.00000000000000	0.00000000000000	0.00000000000000	0.00000000000000	0.00000000000000	0.00000000000000	19.36102900000000	0.00000000000000	0.00000000000000	0.00000000000000	0.00000000000000	
5.26665100000000	2.06077100000000	720.00278500000002	49.89254700000000	0.18972300000000	0.00000000000000	0.13192900000000	0.00000000000000	0.00000000000000	0.00000000000000	0.00000000000000	0.00000000000000	0.00000000000000	0.00000000000000	19.46364200000000	0.00000000000000	0.00000000000000	0.00000000000000	0.00000000000000	
5.26832500000000	1.40836600000000	720.17570999999998	49.90919800000000	0.18846100000000	0.00000000000000	0.13190100000000	0.00000000000000	0.00000000000000	0.00000000000000	0.00000000000000	0.00000000000000	0.00000000000000	0.00000000000000	19.57020200000000	0.00000000000000	0.00000000000000	0.00000000000000	0.00000000000000	
5.26998900000000	0.74671600000000	720.36099700000000	49.93132900000000	0.18719800000000	0.00000000000000	0.13187400000000	0.00000000000000	0.00000000000000	0.00000000000000	0.00000000000000	0.00000000000000	0.00000000000000	0.00000000000000	19.68061800000000	0.00000000000000	0.00000000000000	0.00000000000000	0.00000000000000	
5.27165300000000	0.07615700000000	720.56146400000000	49.95899100000000	0.18593600000000	0.00000000000000	0.13184600000000	0.00000000000000	0.00000000000000	0.00000000000000	0.00000000000000	0.00000000000000	0.00000000000000	0.00000000000000	19.79479300000000	0.00000000000000	0.00000000000000	0.00000000000000	0.00000000000000	
5.27331900000000	-0.60297300000000	720.77995699999997	49.99223200000000	0.18467700000000	0.00000000000000	0.13181900000000	0.00000000000000	0.00000000000000	0.00000000000000	0.00000000000000	0.00000000000000	0.00000000000000	0.00000000000000	19.91262900000000	0.00000000000000	0.00000000000000	0.00000000000000	0.00000000000000	
